<svg width="24.000000" height="19.000000" viewBox="0 0 24 19" fill="none" xmlns="http://www.w3.org/2000/svg" xmlns:xlink="http://www.w3.org/1999/xlink">
	<desc>
			Created with Pixso.
	</desc>
	<defs/>
	<path id="Vector" d="M22.07 0.96C19.46 -1.65 15.21 -1.65 12.6 0.96L12 1.56L11.39 0.96C8.78 -1.65 4.53 -1.65 1.92 0.96C-0.63 3.51 -0.65 7.56 1.89 10.38C4.2 12.95 11.01 18.5 11.3 18.74C11.5 18.89 11.74 18.97 11.97 18.97C11.98 18.97 11.99 18.97 12 18.97C12.24 18.98 12.48 18.9 12.69 18.74C12.98 18.5 19.79 12.95 22.1 10.38C24.64 7.56 24.62 3.51 22.07 0.96ZM20.53 8.96C18.73 10.97 13.77 15.1 12 16.56C10.21 15.1 5.26 10.97 3.46 8.96C1.69 7 1.67 4.2 3.42 2.45C4.32 1.56 5.48 1.12 6.66 1.12C7.83 1.12 9 1.56 9.89 2.45L11.22 3.79C11.38 3.94 11.58 4.04 11.79 4.07C12.13 4.15 12.5 4.05 12.76 3.79L14.1 2.45C15.88 0.67 18.78 0.67 20.57 2.45C22.32 4.2 22.3 7 20.53 8.96Z" fill="#FFFFFF" fill-opacity="1.000000" fill-rule="nonzero"/>
</svg>
