<svg width="21.000000" height="25.000000" viewBox="0 0 21 25" fill="none" xmlns="http://www.w3.org/2000/svg" xmlns:xlink="http://www.w3.org/1999/xlink">
	<desc>
			Created with Pixso.
	</desc>
	<defs/>
	<g opacity="0.700000">
		<path id="Rectangle 199" d="M21 5.83L21 20.5C21 22.7 19.21 24.5 17 24.5L4 24.5C1.78 24.5 0 22.7 0 20.5L0 5.83L21 5.83ZM19.19 7.63L19.19 20.5C19.19 21.71 18.21 22.7 17 22.7L4 22.7C2.78 22.7 1.8 21.71 1.8 20.5L1.8 7.63L19.19 7.63Z" fill="#FFFFFF" fill-opacity="1.000000" fill-rule="evenodd"/>
		<path id="Rectangle 200" d="M4.93 11.66L4.93 4Q4.93 3 5.32 2.09Q5.69 1.21 6.37 0.53Q7.04 -0.15 7.92 -0.52Q8.83 -0.9 9.83 -0.9L11.16 -0.9Q12.16 -0.9 13.07 -0.52Q13.95 -0.15 14.63 0.53Q15.3 1.21 15.68 2.09Q16.06 3 16.06 4L16.06 11.66L14.26 11.66L14.26 4Q14.26 3.36 14.02 2.79Q13.78 2.23 13.35 1.8Q12.92 1.37 12.37 1.14Q11.8 0.9 11.16 0.9L9.83 0.9Q9.2 0.9 8.62 1.14Q8.07 1.37 7.64 1.8Q7.21 2.23 6.97 2.79Q6.73 3.36 6.73 4L6.73 11.66L4.93 11.66Z" fill="#FFFFFF" fill-opacity="1.000000" fill-rule="evenodd"/>
	</g>
</svg>
