<svg width="280.000000" height="29.000000" viewBox="0 0 280 29" fill="none" xmlns="http://www.w3.org/2000/svg" xmlns:xlink="http://www.w3.org/1999/xlink">
	<desc>
			Created with Pixso.
	</desc>
	<defs/>
	<path id="Vector" d="M167.31 11.51L157.45 11.51L159.27 8.19L169.12 8.19L167.31 11.51ZM172.31 3.78L160.41 3.78L151.83 19.53L148.82 19.53L159.21 0.46L174.11 0.46L172.31 3.78ZM169.86 19.53L166.86 19.53L177.25 0.46L180.27 0.46L169.86 19.53ZM198.08 3.78L191.3 3.78L182.7 19.53L179.73 19.53L188.31 3.78L181.48 3.78L183.29 0.46L199.89 0.46L198.08 3.78ZM209.68 17.88C209.02 19.11 208.3 19.72 207.54 19.72C206.99 19.72 206.57 19.34 206.3 18.57L201.93 6.29L194.72 19.53L191.73 19.53L201.22 2.11C201.46 1.65 201.79 1.26 202.19 0.94C202.59 0.61 202.98 0.46 203.38 0.46C203.93 0.46 204.33 0.78 204.57 1.43L208.96 13.7L216.17 0.46L219.17 0.46L209.68 17.88ZM231.34 11.51L221.49 11.51L223.3 8.19L233.15 8.19L231.34 11.51ZM227.77 19.53L212.85 19.53L223.25 0.46L238.16 0.46L236.35 3.78L224.46 3.78L217.67 16.19L229.58 16.19L227.77 19.53ZM252.78 13.64C251.79 15.44 250.43 16.88 248.67 17.99C247 19.01 245.32 19.53 243.66 19.53L230.5 19.53L232.31 16.19L245.48 16.19C246.29 16.19 247.12 16 247.94 15.6C248.93 15.08 249.64 14.41 250.1 13.54C250.57 12.7 250.57 12.03 250.12 11.57C249.74 11.18 249.14 10.97 248.32 10.97L240.18 10.97C238.68 10.97 237.68 10.53 237.16 9.61C236.62 8.63 236.8 7.32 237.68 5.71C238.55 4.1 239.78 2.82 241.4 1.82C242.92 0.92 244.43 0.46 245.91 0.46L258.92 0.46L257.13 3.78L244.11 3.78C243.53 3.78 242.96 3.95 242.35 4.31C241.75 4.66 241.3 5.14 240.97 5.73C240.63 6.35 240.57 6.83 240.8 7.15C241.02 7.5 241.42 7.65 241.99 7.65L250.12 7.65C251.79 7.65 252.9 8.19 253.43 9.24C253.98 10.36 253.78 11.82 252.78 13.64ZM273.85 13.64C272.87 15.44 271.5 16.88 269.74 17.99C268.07 19.01 266.39 19.53 264.74 19.53L251.57 19.53L253.38 16.19L266.55 16.19C267.36 16.19 268.19 16 269.02 15.6C270 15.08 270.71 14.41 271.18 13.54C271.64 12.7 271.64 12.03 271.19 11.57C270.81 11.18 270.21 10.97 269.4 10.97L261.25 10.97C259.75 10.97 258.75 10.53 258.23 9.61C257.69 8.63 257.87 7.32 258.75 5.71C259.63 4.1 260.85 2.82 262.48 1.82C264 0.92 265.5 0.46 266.98 0.46L280 0.46L278.2 3.78L265.19 3.78C264.6 3.78 264.03 3.95 263.43 4.31C262.82 4.66 262.37 5.14 262.05 5.73C261.7 6.35 261.65 6.83 261.87 7.15C262.1 7.5 262.5 7.65 263.07 7.65L271.19 7.65C272.87 7.65 273.97 8.19 274.51 9.24C275.06 10.36 274.85 11.82 273.85 13.64Z" fill="#AF4642" fill-opacity="1.000000" fill-rule="nonzero"/>
	<path id="Vector" d="M68.15 26.24C68.15 26.97 67.93 27.59 67.51 28.07C67.08 28.57 66.53 28.8 65.87 28.8L63.35 28.8L63.35 23.79L65.87 23.79C66.55 23.79 67.08 24.02 67.51 24.48C67.94 24.92 68.15 25.52 68.15 26.24ZM67.36 26.32C67.36 25.84 67.22 25.44 66.94 25.13C66.67 24.82 66.31 24.67 65.87 24.67L64.13 24.67L64.13 27.93L65.87 27.93C66.31 27.93 66.67 27.78 66.94 27.47C67.22 27.18 67.36 26.8 67.36 26.32Z" fill="#FFFFFF" fill-opacity="1.000000" fill-rule="nonzero"/>
	<path id="Vector" d="M73.92 28.8L73.12 28.8L73.12 23.79L73.92 23.79L73.92 28.8ZM84.01 27.26C84.01 27.72 83.86 28.11 83.55 28.39C83.27 28.66 82.91 28.8 82.46 28.8L79.03 28.8L79.03 27.93L82.46 27.93C82.69 27.93 82.87 27.88 83.03 27.76C83.2 27.63 83.29 27.45 83.29 27.22C83.29 27.01 83.2 26.84 83.01 26.71C82.86 26.61 82.69 26.55 82.46 26.55L80.34 26.55C79.96 26.55 79.63 26.44 79.37 26.21C79.08 25.94 78.94 25.59 78.94 25.17C78.94 24.75 79.08 24.42 79.37 24.15C79.63 23.92 79.96 23.79 80.34 23.79L83.74 23.79L83.74 24.67L80.34 24.67C80.2 24.67 80.06 24.71 79.96 24.81C79.85 24.9 79.8 25.02 79.8 25.19C79.8 25.34 79.85 25.46 79.96 25.55C80.06 25.65 80.2 25.69 80.34 25.69L82.46 25.69C82.91 25.69 83.27 25.82 83.55 26.11C83.86 26.4 84.01 26.78 84.01 27.26ZM92.96 24.67L91.19 24.67L91.19 28.8L90.42 28.8L90.42 24.67L88.64 24.67L88.64 23.79L92.96 23.79L92.96 24.67ZM103 28.8L101.83 28.8L100.57 27.4L98.87 27.4L98.87 26.53L100.98 26.53C101.27 26.53 101.52 26.46 101.72 26.32C101.95 26.15 102.05 25.92 102.05 25.61C102.05 24.98 101.71 24.67 100.98 24.67L98.41 24.67L98.41 28.8L97.63 28.8L97.63 23.79L100.86 23.79C101.45 23.79 101.91 23.94 102.26 24.21C102.67 24.54 102.88 25 102.88 25.61C102.88 26.03 102.76 26.4 102.52 26.71C102.31 26.97 102 27.18 101.62 27.28L103 28.8ZM108.85 28.8L108.06 28.8L108.06 23.79L108.85 23.79L108.85 28.8ZM119.17 27.34C119.17 27.55 119.12 27.76 119.03 27.95C118.74 28.51 118.19 28.8 117.38 28.8L114.15 28.8L114.15 23.79L117.38 23.79C118.16 23.79 118.69 24.06 119 24.59C119.12 24.81 119.17 25.04 119.17 25.29C119.17 25.69 119.02 26.03 118.71 26.32C119.02 26.59 119.17 26.94 119.17 27.34ZM118.41 25.27C118.41 25.05 118.31 24.9 118.09 24.79C117.91 24.71 117.72 24.65 117.5 24.65L114.94 24.65L114.94 27.91L117.5 27.91C117.72 27.91 117.91 27.88 118.07 27.82C118.31 27.7 118.41 27.55 118.41 27.36C118.41 27.15 118.31 26.99 118.07 26.88C117.89 26.8 117.71 26.76 117.5 26.76L115.39 26.76L115.39 25.9L117.5 25.9C117.72 25.9 117.91 25.84 118.09 25.76C118.31 25.65 118.41 25.48 118.41 25.27ZM129.27 26.55C129.27 27.36 129.05 27.95 128.61 28.32C128.22 28.64 127.66 28.8 126.91 28.8L126.65 28.8C125.89 28.8 125.32 28.64 124.94 28.32C124.51 27.95 124.28 27.36 124.28 26.55L124.28 23.79L125.07 23.79L125.07 26.55C125.07 27.15 125.27 27.55 125.63 27.74C125.87 27.88 126.3 27.93 126.91 27.93C127.42 27.93 127.78 27.84 128.03 27.66C128.32 27.45 128.48 27.09 128.48 26.55L128.48 23.79L129.27 23.79L129.27 26.55ZM138.49 24.67L136.71 24.67L136.71 28.8L135.93 28.8L135.93 24.67L134.16 24.67L134.16 23.79L138.49 23.79L138.49 24.67ZM144.15 28.8L143.35 28.8L143.35 23.79L144.15 23.79L144.15 28.8ZM155.1 26.24C155.1 26.97 154.9 27.59 154.47 28.07C154.04 28.57 153.5 28.8 152.85 28.8L151.59 28.8C150.93 28.8 150.39 28.57 149.96 28.07C149.53 27.59 149.32 26.97 149.32 26.24C149.32 25.52 149.53 24.92 149.94 24.48C150.38 24.02 150.93 23.79 151.59 23.79L152.85 23.79C153.5 23.79 154.05 24.02 154.48 24.48C154.9 24.92 155.1 25.52 155.1 26.24ZM154.33 26.32C154.33 25.84 154.19 25.44 153.92 25.13C153.64 24.82 153.28 24.67 152.85 24.67L151.59 24.67C151.16 24.67 150.79 24.82 150.52 25.13C150.24 25.44 150.1 25.84 150.1 26.32C150.1 26.8 150.24 27.18 150.52 27.47C150.79 27.78 151.16 27.93 151.59 27.93L152.85 27.93C153.28 27.93 153.64 27.78 153.92 27.47C154.19 27.18 154.33 26.8 154.33 26.32ZM164.46 28.37C164.46 28.68 164.37 28.85 164.17 28.85C164.03 28.85 163.86 28.76 163.68 28.55L160.8 25.32L160.8 28.8L160.01 28.8L160.01 24.23C160.01 24.11 160.04 24.02 160.09 23.92C160.16 23.85 160.23 23.79 160.35 23.79C160.49 23.79 160.65 23.88 160.8 24.06L163.68 27.26L163.68 23.79L164.46 23.79L164.46 28.37ZM170.52 28.37C170.52 28.51 170.48 28.62 170.42 28.7C170.33 28.78 170.24 28.82 170.12 28.82C170 28.82 169.91 28.78 169.83 28.7C169.76 28.62 169.73 28.51 169.73 28.37C169.73 28.24 169.76 28.14 169.83 28.07C169.91 27.97 170 27.93 170.12 27.93C170.24 27.93 170.33 27.97 170.42 28.07C170.48 28.14 170.52 28.24 170.52 28.37ZM181.08 28.8L179.91 28.8L178.65 27.4L176.96 27.4L176.96 26.53L179.08 26.53C179.35 26.53 179.6 26.46 179.8 26.32C180.03 26.15 180.13 25.92 180.13 25.61C180.13 24.98 179.79 24.67 179.08 24.67L176.51 24.67L176.51 28.8L175.71 28.8L175.71 23.79L178.94 23.79C179.53 23.79 180 23.94 180.36 24.21C180.75 24.54 180.96 25 180.96 25.61C180.96 26.03 180.84 26.4 180.6 26.71C180.39 26.97 180.08 27.18 179.72 27.28L181.08 28.8ZM189.69 26.71L187.12 26.71L187.12 25.82L189.69 25.82L189.69 26.71ZM189.9 28.8L186.02 28.8L186.02 23.79L189.9 23.79L189.9 24.67L186.8 24.67L186.8 27.93L189.9 27.93L189.9 28.8ZM199.05 24.67L197.27 24.67L197.27 28.8L196.5 28.8L196.5 24.67L194.72 24.67L194.72 23.79L199.05 23.79L199.05 24.67ZM209.58 28.8L208.58 28.8L207.82 27.4L205.68 27.4L206.16 26.53L207.35 26.53L206.57 25.09L204.54 28.8L203.54 28.8L205.97 24.27C206.04 24.15 206.12 24.06 206.23 23.94C206.37 23.85 206.49 23.79 206.59 23.79C206.69 23.79 206.82 23.83 206.94 23.94C207.04 24.04 207.13 24.15 207.19 24.27L209.58 28.8ZM215.08 28.8L214.31 28.8L214.31 23.79L215.08 23.79L215.08 28.8ZM224.04 28.8L220.16 28.8L220.16 23.79L220.95 23.79L220.95 27.93L224.04 27.93L224.04 28.8ZM229.63 28.37C229.63 28.51 229.6 28.62 229.51 28.7C229.44 28.78 229.34 28.82 229.22 28.82C229.12 28.82 229.01 28.78 228.94 28.7C228.85 28.62 228.82 28.51 228.82 28.37C228.82 28.24 228.85 28.14 228.94 28.07C229.01 27.97 229.12 27.93 229.22 27.93C229.34 27.93 229.44 27.97 229.51 28.07C229.6 28.14 229.63 28.24 229.63 28.37ZM239.61 28.8L237.07 28.8C236.42 28.8 235.86 28.57 235.45 28.07C235.02 27.59 234.79 26.97 234.79 26.24C234.79 25.52 235.02 24.92 235.43 24.48C235.86 24.02 236.4 23.79 237.07 23.79L239.61 23.79L239.61 24.67L237.07 24.67C236.64 24.67 236.28 24.82 236 25.13C235.73 25.44 235.59 25.84 235.59 26.32C235.59 26.8 235.73 27.18 236 27.47C236.28 27.78 236.64 27.93 237.07 27.93L239.61 27.93L239.61 28.8ZM248.26 28.8L244.37 28.8L244.37 23.79L245.15 23.79L245.15 27.93L248.26 27.93L248.26 28.8ZM258.11 26.55C258.11 27.36 257.89 27.95 257.46 28.32C257.08 28.64 256.51 28.8 255.77 28.8L255.49 28.8C254.73 28.8 254.18 28.64 253.78 28.32C253.35 27.95 253.14 27.36 253.14 26.55L253.14 23.79L253.92 23.79L253.92 26.55C253.92 27.15 254.11 27.55 254.49 27.74C254.73 27.88 255.14 27.93 255.77 27.93C256.26 27.93 256.64 27.84 256.89 27.66C257.18 27.45 257.32 27.09 257.32 26.55L257.32 23.79L258.11 23.79L258.11 26.55ZM268.33 27.34C268.33 27.55 268.28 27.76 268.19 27.95C267.9 28.51 267.34 28.8 266.53 28.8L263.31 28.8L263.31 23.79L266.53 23.79C267.31 23.79 267.85 24.06 268.16 24.59C268.28 24.81 268.33 25.04 268.33 25.29C268.33 25.69 268.18 26.03 267.86 26.32C268.18 26.59 268.33 26.94 268.33 27.34ZM267.57 25.27C267.57 25.05 267.46 24.9 267.24 24.79C267.07 24.71 266.88 24.65 266.66 24.65L264.1 24.65L264.1 27.91L266.66 27.91C266.88 27.91 267.07 27.88 267.23 27.82C267.46 27.7 267.57 27.55 267.57 27.36C267.57 27.15 267.46 26.99 267.23 26.88C267.05 26.8 266.86 26.76 266.66 26.76L264.55 26.76L264.55 25.9L266.66 25.9C266.88 25.9 267.07 25.84 267.24 25.76C267.46 25.65 267.57 25.48 267.57 25.27ZM278.18 27.26C278.18 27.72 278.03 28.11 277.72 28.39C277.44 28.66 277.08 28.8 276.63 28.8L273.19 28.8L273.19 27.93L276.63 27.93C276.85 27.93 277.05 27.88 277.2 27.76C277.37 27.63 277.48 27.45 277.48 27.22C277.48 27.01 277.37 26.84 277.18 26.71C277.05 26.61 276.85 26.55 276.63 26.55L274.51 26.55C274.13 26.55 273.8 26.44 273.54 26.21C273.25 25.94 273.11 25.59 273.11 25.17C273.11 24.75 273.25 24.42 273.54 24.15C273.8 23.92 274.13 23.79 274.51 23.79L277.91 23.79L277.91 24.67L274.51 24.67C274.37 24.67 274.23 24.71 274.13 24.81C274.02 24.9 273.97 25.02 273.97 25.19C273.97 25.34 274.02 25.46 274.13 25.55C274.23 25.65 274.37 25.69 274.51 25.69L276.63 25.69C277.08 25.69 277.44 25.82 277.72 26.11C278.03 26.4 278.18 26.78 278.18 27.26Z" fill="#FFFFFF" fill-opacity="1.000000" fill-rule="nonzero"/>
	<path id="Vector" d="M0 0.21L13.03 0.21L28.85 28.89L15.8 28.89L0 0.21Z" fill="#FFFFFF" fill-opacity="1.000000" fill-rule="nonzero"/>
	<path id="Vector" d="M15.32 0.21L28.37 0.21L44.2 28.89L31.15 28.89L15.32 0.21Z" fill="#FFFFFF" fill-opacity="1.000000" fill-rule="nonzero"/>
	<path id="Vector" d="M30.61 0.21L59.73 0.21L54.71 8.96L35.43 8.96L30.61 0.21Z" fill="#B44843" fill-opacity="1.000000" fill-rule="nonzero"/>
	<path id="Vector" d="M48.24 20.24L41.54 20.24L36.53 11.14L53.45 11.14L48.24 20.24Z" fill="#B44843" fill-opacity="1.000000" fill-rule="nonzero"/>
	<path id="Vector" d="M72.75 19.01L62.32 0.01L65.89 0.03L73.71 14.1L75.76 10.47L70.03 0.01L73.59 0.03L81.29 13.89L88.93 0L92.56 0.01C89.02 6.4 85.53 12.7 82.07 19.01L80.51 19.01L77.54 13.7C76.51 15.56 75.54 17.28 74.57 19.01L72.75 19.01Z" fill="#FEFEFE" fill-opacity="1.000000" fill-rule="nonzero"/>
	<path id="Vector" d="M84.88 19.01L95.39 0.03L112.93 0.01L111.11 3.16L110.51 3.14L97.24 3.14L90.12 16L103.93 16L102.26 19.01L84.88 19.01Z" fill="#FEFEFE" fill-opacity="1.000000" fill-rule="nonzero"/>
	<path id="Vector" d="M125.56 19.01L136 0L139.61 0.01L130.74 16.02L144.2 16.02L142.37 19.01L125.56 19.01Z" fill="#FEFEFE" fill-opacity="1.000000" fill-rule="nonzero"/>
	<path id="Vector" d="M105.64 19.01L110.4 10.32L115.72 0.7L116.12 0L119.69 0.01L110.85 16L124.18 16L122.45 19.01L105.64 19.01Z" fill="#FEFEFE" fill-opacity="1.000000" fill-rule="nonzero"/>
	<path id="Vector" d="M95.08 11.05L96.68 7.96L108.19 8L106.45 11.07L95.08 11.05Z" fill="#FEFEFE" fill-opacity="1.000000" fill-rule="nonzero"/>
</svg>

