<svg width="20.000000" height="20.000000" viewBox="0 0 20 20" fill="none" xmlns="http://www.w3.org/2000/svg" xmlns:xlink="http://www.w3.org/1999/xlink">
	<desc>
			Created with Pixso.
	</desc>
	<defs/>
	<path id="Vector" d="M10 -0.5C4.47 -0.5 0 3.97 0 9.5C0 15.02 4.47 19.5 10 19.5C15.52 19.5 20 15.02 20 9.5C20 3.97 15.52 -0.5 10 -0.5ZM10 2.49C11.82 2.49 13.3 3.97 13.3 5.79C13.3 7.62 11.82 9.1 10 9.1C8.17 9.1 6.69 7.62 6.69 5.79C6.69 3.97 8.17 2.49 10 2.49ZM9.99 16.88C8.17 16.88 6.5 16.22 5.21 15.12C4.9 14.85 4.72 14.46 4.72 14.05C4.72 12.19 6.22 10.71 8.07 10.71L11.92 10.71C13.77 10.71 15.26 12.19 15.26 14.05C15.26 14.46 15.08 14.85 14.77 15.12C13.49 16.22 11.82 16.88 9.99 16.88Z" fill="#858FA4" fill-opacity="0.700000" fill-rule="nonzero"/>
</svg>
