<svg width="20.000000" height="20.000000" viewBox="0 0 20 20" fill="none" xmlns="http://www.w3.org/2000/svg" xmlns:xlink="http://www.w3.org/1999/xlink">
	<desc>
			Created with Pixso.
	</desc>
	<defs/>
	<path id="Vector" d="M11.44 17.1C9.55 17.1 7.7 16.46 6.21 15.3L1.51 20L0 18.48L4.69 13.78C3.53 12.29 2.89 10.45 2.89 8.55C2.89 3.83 6.73 0 11.44 0C16.16 0 20 3.83 20 8.55C20 13.26 16.16 17.1 11.44 17.1ZM11.44 2.13C7.91 2.13 5.03 5.01 5.03 8.55C5.03 12.09 7.91 14.96 11.44 14.96C14.98 14.96 17.86 12.09 17.86 8.55C17.86 5.01 14.98 2.13 11.44 2.13Z" fill="#858FA4" fill-opacity="0.700000" fill-rule="nonzero"/>
</svg>
