<svg width="660" height="400" viewBox="0 0 660 400" fill="none" xmlns="http://www.w3.org/2000/svg">
<rect width="660" height="400" fill="#F53B49"/>
<path d="M30.7138 57H31.907C37.1591 57 38.7997 53.7933 39.1406 46.4744L39.4815 38.8786H45.522V57H50.0071V35.1818H35.1989L34.8366 44.8871C34.6236 50.9702 33.7287 53.0369 31.3317 53.2393L30.7138 53.2926V57ZM56.527 63.1364C59.9041 63.1364 61.6939 61.4105 62.6207 58.7685L68.9808 40.6577L64.1761 40.6364L60.7564 52.6534H60.5859L57.1982 40.6364H52.4254L58.2955 57.4688L58.0291 58.1612C57.4325 59.6953 56.2926 59.7699 54.6946 59.2798L53.6719 62.6676C54.3217 62.9446 55.3764 63.1364 56.527 63.1364ZM85.0355 40.6364H80.7315V48.4666C79.9538 48.6477 79.1974 48.733 78.4091 48.733C76.0014 48.733 75.1172 48.0938 75.1172 46.1974V40.6151H70.8345V46.1974C70.8345 50.4588 73.7003 52.3018 78.4091 52.3018C79.1229 52.3018 79.9538 52.206 80.7315 52.0568V57H85.0355V40.6364ZM88.5591 40.6364V57H110.793V40.6364H106.457V53.3991H101.844V40.6364H97.508V53.3991H92.8951V40.6364H88.5591ZM118.647 51.0128V40.6364H114.311V57H118.817L124.688 46.5916V57H129.013V40.6364H124.538L118.647 51.0128ZM140.108 57.3196C144.157 57.3196 146.884 55.3487 147.523 52.3125L143.326 52.0355C142.868 53.282 141.696 53.9318 140.183 53.9318C137.914 53.9318 136.475 52.4297 136.475 49.9901V49.9794H147.619V48.733C147.619 43.1719 144.252 40.4233 139.927 40.4233C135.112 40.4233 131.99 43.843 131.99 48.8928C131.99 54.081 135.069 57.3196 140.108 57.3196ZM136.475 47.1669C136.571 45.3026 137.988 43.8111 140.002 43.8111C141.973 43.8111 143.336 45.2173 143.347 47.1669H136.475ZM156.672 44.2053H161.903V57H166.228V44.2053H171.501V40.6364H156.672V44.2053ZM174.252 63.1364H178.791V54.3793H178.929C179.558 55.7429 180.932 57.2663 183.574 57.2663C187.303 57.2663 190.211 54.3153 190.211 48.8395C190.211 43.2145 187.175 40.4233 183.585 40.4233C180.847 40.4233 179.537 42.0533 178.929 43.3849H178.727V40.6364H174.252V63.1364ZM178.695 48.8182C178.695 45.8991 179.931 44.0348 182.136 44.0348C184.384 44.0348 185.577 45.9844 185.577 48.8182C185.577 51.6733 184.363 53.6548 182.136 53.6548C179.952 53.6548 178.695 51.7372 178.695 48.8182ZM200.694 57.3196C204.743 57.3196 207.47 55.3487 208.109 52.3125L203.912 52.0355C203.453 53.282 202.282 53.9318 200.769 53.9318C198.5 53.9318 197.061 52.4297 197.061 49.9901V49.9794H208.205V48.733C208.205 43.1719 204.838 40.4233 200.513 40.4233C195.698 40.4233 192.576 43.843 192.576 48.8928C192.576 54.081 195.655 57.3196 200.694 57.3196ZM197.061 47.1669C197.157 45.3026 198.574 43.8111 200.588 43.8111C202.559 43.8111 203.922 45.2173 203.933 47.1669H197.061ZM215.502 40.6364H211.167V57H215.502V50.576H221.096V57H225.4V40.6364H221.096V47.0071H215.502V40.6364ZM233.587 57.3089C236.005 57.3089 237.571 56.2543 238.37 54.7308H238.498V57H242.802V45.9631C242.802 42.0639 239.499 40.4233 235.856 40.4233C231.935 40.4233 229.357 42.2983 228.729 45.2812L232.926 45.6222C233.235 44.5355 234.205 43.7365 235.835 43.7365C237.379 43.7365 238.263 44.5142 238.263 45.8565V45.9205C238.263 46.9751 237.145 47.1136 234.3 47.3906C231.062 47.6889 228.153 48.7756 228.153 52.4297C228.153 55.6683 230.465 57.3089 233.587 57.3089ZM234.886 54.1768C233.491 54.1768 232.489 53.527 232.489 52.2805C232.489 51.0021 233.544 50.3736 235.142 50.1499C236.133 50.0114 237.752 49.777 238.295 49.4148V51.1513C238.295 52.8665 236.879 54.1768 234.886 54.1768ZM245.257 57H250.552L254.782 50.608H255.421V57H259.959V50.608H260.598L264.806 57H270.101L264.391 48.4879L270.069 40.6364H264.892L260.641 47.0391H259.959V40.6364H255.421V47.0391H254.718L250.467 40.6364H245.289L250.978 48.4879L245.257 57ZM279.503 57.3196C283.551 57.3196 286.278 55.3487 286.918 52.3125L282.72 52.0355C282.262 53.282 281.09 53.9318 279.577 53.9318C277.308 53.9318 275.87 52.4297 275.87 49.9901V49.9794H287.013V48.733C287.013 43.1719 283.647 40.4233 279.322 40.4233C274.506 40.4233 271.385 43.843 271.385 48.8928C271.385 54.081 274.464 57.3196 279.503 57.3196ZM275.87 47.1669C275.966 45.3026 277.383 43.8111 279.396 43.8111C281.367 43.8111 282.731 45.2173 282.741 47.1669H275.87ZM289.975 63.1364H294.513V54.3793H294.652C295.281 55.7429 296.655 57.2663 299.297 57.2663C303.026 57.2663 305.934 54.3153 305.934 48.8395C305.934 43.2145 302.898 40.4233 299.308 40.4233C296.57 40.4233 295.259 42.0533 294.652 43.3849H294.45V40.6364H289.975V63.1364ZM294.418 48.8182C294.418 45.8991 295.653 44.0348 297.859 44.0348C300.107 44.0348 301.3 45.9844 301.3 48.8182C301.3 51.6733 300.085 53.6548 297.859 53.6548C295.675 53.6548 294.418 51.7372 294.418 48.8182ZM313.295 45.6648V40.6364H308.96V57H316.694C321.03 57 323.576 54.7308 323.587 51.3537C323.576 47.9126 321.03 45.6648 316.694 45.6648H313.295ZM325.344 57H329.883V40.6364H325.344V57ZM313.295 49.2337H316.694C318.217 49.2337 319.293 50.1286 319.315 51.3857C319.293 52.5788 318.217 53.4311 316.694 53.4311H313.295V49.2337ZM30.5327 94.794H34.9645V90H44.968V94.794H49.2933V86.3991H46.7578V73.6364H34.2081L33.782 78.9844C33.5263 82.2017 33.2173 85.4936 31.7898 86.3991H30.5327V94.794ZM36.3068 86.3991C37.2763 84.8757 37.6491 82.4787 37.8942 78.9844L38.0646 77.1307H42.4751V86.3991H36.3068ZM50.9792 90H52.3429C55.8159 90 57.6589 87.6989 57.9359 82.2017L58.1916 77.2053H62.2292V90H66.5545V73.6364H54.1113L53.845 80.8807C53.6852 85.0249 53.046 86.3991 51.5012 86.3991H50.9579L50.9792 90ZM79.6609 90H83.8903V73.6364H76.5927C72.3526 73.6364 69.7106 75.8097 69.7319 79.0057C69.7212 80.9979 70.8398 82.5533 72.7894 83.4055L69.2631 90H73.6097L76.7525 84.098H79.6609V90ZM79.6609 81.0298H76.5501C74.8988 81.0298 74.0359 80.1989 74.0572 79.1335C74.0359 78.0895 74.9201 77.1946 76.5927 77.1946H79.6609V81.0298Z" fill="#F2F2F2"/>
<path d="M38.032 113.256L30.224 102.28H36.176L42.384 111.304H43.824V102.28H49.2V111.304H50.64L56.848 102.28H62.8L54.992 113.256L63.536 125H57.648L51.184 116.072H49.2V125H43.824V116.072H41.84L35.376 125H29.488L38.032 113.256ZM70.5833 116.84L81.2713 102.28H85.1753V125H79.9272V110.792L69.3673 125H65.3033V102.28H70.5833V116.84ZM89.7095 125V102.28H99.4055C100.494 102.28 101.486 102.504 102.382 102.952C103.299 103.4 104.078 103.987 104.718 104.712C105.379 105.437 105.891 106.259 106.253 107.176C106.638 108.093 106.83 109.021 106.83 109.96C106.83 110.963 106.648 111.923 106.286 112.84C105.944 113.757 105.454 114.579 104.814 115.304C104.195 116.029 103.438 116.605 102.542 117.032C101.646 117.459 100.654 117.672 99.5655 117.672H94.9575V125H89.7095ZM94.9575 113.096H99.2455C99.8642 113.096 100.398 112.829 100.846 112.296C101.294 111.763 101.518 110.984 101.518 109.96C101.518 109.427 101.443 108.968 101.294 108.584C101.166 108.2 100.984 107.88 100.75 107.624C100.515 107.368 100.248 107.187 99.9495 107.08C99.6508 106.952 99.3522 106.888 99.0535 106.888H94.9575V113.096ZM119.597 125.192C117.911 125.192 116.375 124.861 114.989 124.2C113.602 123.539 112.418 122.675 111.437 121.608C110.455 120.52 109.687 119.283 109.133 117.896C108.599 116.509 108.333 115.08 108.333 113.608C108.333 112.115 108.61 110.675 109.165 109.288C109.741 107.901 110.53 106.685 111.533 105.64C112.557 104.573 113.762 103.731 115.149 103.112C116.535 102.472 118.05 102.152 119.693 102.152C121.378 102.152 122.914 102.483 124.301 103.144C125.687 103.805 126.871 104.68 127.853 105.768C128.834 106.856 129.591 108.093 130.125 109.48C130.658 110.867 130.925 112.275 130.925 113.704C130.925 115.197 130.637 116.637 130.061 118.024C129.506 119.411 128.727 120.637 127.725 121.704C126.722 122.749 125.527 123.592 124.141 124.232C122.754 124.872 121.239 125.192 119.597 125.192ZM113.677 113.672C113.677 114.547 113.805 115.4 114.061 116.232C114.317 117.043 114.69 117.768 115.181 118.408C115.693 119.048 116.322 119.56 117.069 119.944C117.815 120.328 118.669 120.52 119.629 120.52C120.631 120.52 121.506 120.317 122.253 119.912C122.999 119.507 123.618 118.984 124.109 118.344C124.599 117.683 124.962 116.947 125.197 116.136C125.453 115.304 125.581 114.461 125.581 113.608C125.581 112.733 125.453 111.891 125.197 111.08C124.941 110.248 124.557 109.523 124.045 108.904C123.533 108.264 122.903 107.763 122.157 107.4C121.431 107.016 120.589 106.824 119.629 106.824C118.626 106.824 117.751 107.027 117.005 107.432C116.279 107.816 115.661 108.328 115.149 108.968C114.658 109.608 114.285 110.344 114.029 111.176C113.794 111.987 113.677 112.819 113.677 113.672ZM132.645 113.448C132.645 112.083 132.901 110.728 133.413 109.384C133.925 108.019 134.672 106.803 135.653 105.736C136.635 104.669 137.829 103.805 139.237 103.144C140.645 102.483 142.245 102.152 144.037 102.152C146.171 102.152 148.016 102.611 149.573 103.528C151.152 104.445 152.325 105.64 153.093 107.112L149.061 109.928C148.805 109.331 148.475 108.84 148.069 108.456C147.685 108.051 147.259 107.731 146.789 107.496C146.32 107.24 145.84 107.069 145.349 106.984C144.859 106.877 144.379 106.824 143.909 106.824C142.907 106.824 142.032 107.027 141.285 107.432C140.539 107.837 139.92 108.36 139.429 109C138.939 109.64 138.576 110.365 138.341 111.176C138.107 111.987 137.989 112.808 137.989 113.64C137.989 114.536 138.128 115.4 138.405 116.232C138.683 117.064 139.077 117.8 139.589 118.44C140.123 119.08 140.752 119.592 141.477 119.976C142.224 120.339 143.056 120.52 143.973 120.52C144.443 120.52 144.923 120.467 145.413 120.36C145.925 120.232 146.405 120.051 146.853 119.816C147.323 119.56 147.749 119.24 148.133 118.856C148.517 118.451 148.827 117.96 149.061 117.384L153.349 119.912C153.008 120.744 152.496 121.491 151.813 122.152C151.152 122.813 150.384 123.368 149.509 123.816C148.635 124.264 147.707 124.605 146.725 124.84C145.744 125.075 144.784 125.192 143.845 125.192C142.203 125.192 140.688 124.861 139.301 124.2C137.936 123.517 136.752 122.621 135.749 121.512C134.768 120.403 134 119.144 133.445 117.736C132.912 116.328 132.645 114.899 132.645 113.448ZM161.845 113.256L154.037 102.28H159.989L166.197 111.304H167.637V102.28H173.013V111.304H174.453L180.661 102.28H186.613L178.805 113.256L187.349 125H181.461L174.997 116.072H173.013V125H167.637V116.072H165.653L159.189 125H153.3L161.845 113.256ZM194.396 116.84L205.084 102.28H208.988V125H203.74V110.792L193.18 125H189.116V102.28H194.396V116.84ZM227.858 106.888H218.802V125H213.522V102.28H227.858V106.888ZM233.383 102.28H238.119L246.407 125H241.031L239.271 119.912H232.199L230.471 125H225.095L233.383 102.28ZM238.407 116.296L235.751 108.264L233.031 116.296H238.407ZM268.293 102.28V125H263.045V115.688H253.989V125H248.741V102.28H253.989V111.08H263.045V102.28H268.293ZM278.146 116.84L288.834 102.28H292.738V125H287.49V110.792L276.93 125H272.866V102.28H278.146V116.84ZM309.016 125V116.808H306.296L301.24 125H295.544L301.048 116.2C299.768 115.645 298.755 114.792 298.008 113.64C297.283 112.467 296.92 111.101 296.92 109.544C296.92 108.52 297.101 107.571 297.464 106.696C297.848 105.821 298.36 105.053 299 104.392C299.661 103.731 300.44 103.219 301.336 102.856C302.253 102.472 303.256 102.28 304.344 102.28H314.264V125H309.016ZM309.016 106.76H305.016C304.675 106.76 304.333 106.824 303.992 106.952C303.672 107.059 303.373 107.229 303.096 107.464C302.84 107.677 302.627 107.965 302.456 108.328C302.307 108.669 302.232 109.075 302.232 109.544C302.232 110.483 302.499 111.187 303.032 111.656C303.565 112.104 304.205 112.328 304.952 112.328H309.016V106.76Z" fill="white"/>
</svg>
